<?xml version="1.0" encoding="UTF-8"?>
<svg xmlns="http://www.w3.org/2000/svg" width="260" height="80" x="0px" y="0px" viewBox="0 0 354 100" version="1.1" style="transform: translate(0px, 0px); background: transparent;"><g transform="translate(10, 10)" style="fill:#000000;"><rect x="0" y="0" width="4" height="80"/><rect x="6" y="0" width="2" height="80"/><rect x="12" y="0" width="2" height="80"/><rect x="22" y="0" width="4" height="80"/><rect x="28" y="0" width="6" height="80"/><rect x="36" y="0" width="2" height="80"/><rect x="44" y="0" width="4" height="80"/><rect x="50" y="0" width="6" height="80"/><rect x="58" y="0" width="6" height="80"/><rect x="66" y="0" width="2" height="80"/><rect x="70" y="0" width="4" height="80"/><rect x="76" y="0" width="6" height="80"/><rect x="88" y="0" width="4" height="80"/><rect x="98" y="0" width="2" height="80"/><rect x="106" y="0" width="2" height="80"/><rect x="110" y="0" width="4" height="80"/><rect x="116" y="0" width="6" height="80"/><rect x="128" y="0" width="2" height="80"/><rect x="132" y="0" width="4" height="80"/><rect x="142" y="0" width="2" height="80"/><rect x="146" y="0" width="2" height="80"/><rect x="154" y="0" width="4" height="80"/><rect x="160" y="0" width="4" height="80"/><rect x="168" y="0" width="4" height="80"/><rect x="176" y="0" width="2" height="80"/><rect x="180" y="0" width="4" height="80"/><rect x="190" y="0" width="6" height="80"/><rect x="198" y="0" width="4" height="80"/><rect x="204" y="0" width="6" height="80"/><rect x="212" y="0" width="6" height="80"/><rect x="220" y="0" width="2" height="80"/><rect x="224" y="0" width="6" height="80"/><rect x="232" y="0" width="4" height="80"/><rect x="242" y="0" width="2" height="80"/><rect x="246" y="0" width="2" height="80"/><rect x="254" y="0" width="4" height="80"/><rect x="264" y="0" width="4" height="80"/><rect x="274" y="0" width="2" height="80"/><rect x="278" y="0" width="6" height="80"/><rect x="286" y="0" width="2" height="80"/><rect x="290" y="0" width="2" height="80"/><rect x="294" y="0" width="8" height="80"/><rect x="308" y="0" width="4" height="80"/><rect x="318" y="0" width="6" height="80"/><rect x="326" y="0" width="2" height="80"/><rect x="330" y="0" width="4" height="80"/></g></svg>